<?xml version="1.0" encoding="UTF-8"?>
<svg width="459px" height="459px" viewBox="0 0 459 459" version="1.1" xmlns="http://www.w3.org/2000/svg" xmlns:xlink="http://www.w3.org/1999/xlink">
    <!-- Generator: Sketch 52.4 (67378) - http://www.bohemiancoding.com/sketch -->
    <title>android</title>
    <desc>Created with Sketch.</desc>
    <g id="android" stroke="none" stroke-width="1" fill="none" fill-rule="evenodd">
        <g>
            <circle id="Oval" fill="#A4C639" fill-rule="nonzero" cx="229.5" cy="229.5" r="229.5"></circle>
            <g id="Group" transform="translate(83.000000, 60.000000)" fill="#FFFFFF">
                <g id="b-link" transform="translate(56.000000, 26.000000)" stroke="#A4C639" stroke-width="14.4">
                    <g id="b">
                        <ellipse id="Oval" cx="91" cy="84" rx="91" ry="84"></ellipse>
                        <rect id="Rectangle" x="0" y="63" width="182" height="182" rx="22"></rect>
                    </g>
                </g>
                <g id="a-link" transform="translate(187.500000, 170.000000) scale(-1, 1) translate(-187.500000, -170.000000) translate(81.000000, 0.000000)">
                    <g id="a">
                        <rect id="Rectangle" stroke="#FFFFFF" stroke-width="7.2" transform="translate(185.776518, 41.329950) rotate(29.000000) translate(-185.776518, -41.329950) " x="179.276518" y="-1.67005019" width="13" height="86" rx="6.5"></rect>
                        <rect id="c" stroke="#A4C639" stroke-width="7.2" x="0" y="110" width="48" height="133" rx="24"></rect>
                        <g id="c-link" transform="translate(89.000000, 207.000000)">
                            <rect id="c" x="0" y="0" width="48" height="133" rx="24"></rect>
                        </g>
                    </g>
                </g>
                <g id="a">
                    <rect id="Rectangle" stroke="#FFFFFF" stroke-width="7.2" transform="translate(185.776518, 41.329950) rotate(29.000000) translate(-185.776518, -41.329950) " x="179.276518" y="-1.67005019" width="13" height="86" rx="6.5"></rect>
                    <rect id="c" stroke="#A4C639" stroke-width="7.2" x="0" y="110" width="48" height="133" rx="24"></rect>
                    <g id="c-link" transform="translate(89.000000, 207.000000)">
                        <rect id="c" x="0" y="0" width="48" height="133" rx="24"></rect>
                    </g>
                </g>
                <g id="b" transform="translate(56.000000, 26.000000)">
                    <ellipse id="Oval" cx="91" cy="84" rx="91" ry="84"></ellipse>
                    <rect id="Rectangle" x="0" y="63" width="182" height="182" rx="22"></rect>
                </g>
            </g>
            <g id="Group" transform="translate(135.000000, 125.000000)" fill="#A4C639" stroke="#A4C639" stroke-width="11.2">
                <path d="M0,48.5 L190,48.5" id="Path"></path>
                <circle id="Oval" cx="53" cy="4" r="4"></circle>
                <circle id="Oval" cx="137" cy="4" r="4"></circle>
            </g>
        </g>
    </g>
</svg>