<?xml version="1.0" encoding="UTF-8"?>
<svg width="537px" height="537px" viewBox="0 0 537 537" version="1.1" xmlns="http://www.w3.org/2000/svg" xmlns:xlink="http://www.w3.org/1999/xlink">
    <!-- Generator: Sketch 52.4 (67378) - http://www.bohemiancoding.com/sketch -->
    <title>react</title>
    <desc>Created with Sketch.</desc>
    <g id="Page-2" stroke="none" stroke-width="1" fill="none" fill-rule="evenodd">
        <g id="react">
            <circle id="Oval-Copy" fill="#61DAFB" cx="268.2" cy="268.2" r="268.2"></circle>
            <path d="M482.989844,268.493822 C482.989844,240.00964 447.318883,213.015399 392.629253,196.275464 C405.249937,140.53411 399.640744,96.1864297 374.925238,81.9881604 C369.228402,78.6577021 362.567485,77.0801167 355.293063,77.0801167 L355.293063,96.6246479 C359.324671,96.6246479 362.567485,97.4134407 365.284438,98.9033825 C377.203973,105.739586 382.374947,131.769747 378.34334,165.249616 C377.37926,173.488118 375.801675,182.164838 373.873515,191.016846 C356.695362,186.809951 337.939623,183.567137 318.219805,181.463689 C306.387913,165.249616 294.117804,150.525485 281.760051,137.64187 C310.331877,111.085848 337.15083,96.5370043 355.380707,96.5370043 L355.380707,76.992473 C355.380707,76.992473 355.380707,76.992473 355.380707,76.992473 C331.278707,76.992473 299.726997,94.1706261 267.824713,123.969463 C235.922429,94.3459133 204.370719,77.3430476 180.268718,77.3430476 L180.268718,96.8875788 C198.410952,96.8875788 225.317548,111.348779 253.889374,137.729514 C241.619265,150.613129 229.349156,165.249616 217.692552,181.463689 C197.88509,183.567137 179.129351,186.809951 161.951198,191.10449 C159.935394,182.340126 158.445453,173.838693 157.393729,165.687835 C153.274478,132.207965 158.357809,106.177804 170.1897,99.253957 C172.819009,97.6763716 176.237111,96.9752225 180.268718,96.9752225 L180.268718,77.4306912 C180.268718,77.4306912 180.268718,77.4306912 180.268718,77.4306912 C172.906653,77.4306912 166.245736,79.0082767 160.461256,82.3387349 C135.833394,96.5370043 130.311845,140.797041 143.020172,196.363108 C88.5058296,213.190686 53.0101562,240.097283 53.0101562,268.493822 C53.0101562,296.978004 88.6811169,323.972245 143.370747,340.712179 C130.750063,396.453533 136.359256,440.801214 161.074762,454.999483 C166.771598,458.329941 173.432515,459.907527 180.79458,459.907527 C204.896581,459.907527 236.44829,442.729374 268.350575,412.930537 C300.252859,442.554087 331.804568,459.556952 355.906569,459.556952 C363.268634,459.556952 369.929551,457.979367 375.714031,454.648909 C400.341893,440.450639 405.863442,396.190602 393.155115,340.624536 C447.49417,323.884601 482.989844,296.89036 482.989844,268.493822 Z M368.877827,210.035515 C365.635013,221.341545 361.603405,232.998148 357.045936,244.654752 C353.452547,237.643261 349.683871,230.63177 345.56462,223.620279 C341.533012,216.608788 337.238474,209.772584 332.943936,203.111668 C345.389332,204.952184 357.396511,207.230919 368.877827,210.035515 Z M328.737041,303.37599 C321.900837,315.207881 314.889346,326.426266 307.614924,336.855859 C294.556022,337.995227 281.321833,338.608732 268,338.608732 C254.765811,338.608732 241.531621,337.995227 228.560363,336.943503 C221.285941,326.51391 214.186806,315.383168 207.350603,303.638921 C200.689686,292.157604 194.642275,280.501 189.120726,268.756753 C194.554631,257.012505 200.689686,245.268258 207.262959,233.786941 C214.099163,221.95505 221.110654,210.736664 228.385076,200.307072 C241.443978,199.167704 254.678167,198.554199 268,198.554199 C281.234189,198.554199 294.468379,199.167704 307.439637,200.219428 C314.714059,210.649021 321.813194,221.779763 328.649397,233.52401 C335.310314,245.005327 341.357725,256.661931 346.879274,268.406178 C341.357725,280.150426 335.310314,291.894673 328.737041,303.37599 Z M357.045936,291.982317 C361.778693,303.726564 365.8103,315.470812 369.140758,326.864485 C357.659442,329.669081 345.56462,332.035459 333.031579,333.875976 C337.326118,327.127416 341.620656,320.203568 345.652263,313.104434 C349.683871,306.092942 353.452547,298.993808 357.045936,291.982317 Z M268.175287,385.498078 C260.024429,377.084289 251.873571,367.70642 243.810356,357.452114 C251.698283,357.802689 259.761498,358.06562 267.912356,358.06562 C276.150858,358.06562 284.301717,357.890332 292.277288,357.452114 C284.38936,367.70642 276.238502,377.084289 268.175287,385.498078 Z M202.968421,333.875976 C190.523024,332.035459 178.515846,329.756725 167.034529,326.952128 C170.277344,315.646099 174.308951,303.989495 178.86642,292.332891 C182.459809,299.344382 186.228486,306.355873 190.347737,313.367364 C194.466988,320.378855 198.673882,327.215059 202.968421,333.875976 Z M267.737069,151.489565 C275.887927,159.903354 284.038786,169.281224 292.102,179.535529 C284.214073,179.184955 276.150858,178.922024 268,178.922024 C259.761498,178.922024 251.61064,179.097311 243.635069,179.535529 C251.522996,169.281224 259.673854,159.903354 267.737069,151.489565 Z M202.880777,203.111668 C198.586239,209.860228 194.291701,216.784075 190.260093,223.88321 C186.228486,230.894701 182.459809,237.906192 178.86642,244.917683 C174.133664,233.173436 170.102056,221.429188 166.771598,210.035515 C178.252915,207.318563 190.347737,204.952184 202.880777,203.111668 Z M123.563285,312.841503 C92.5374369,299.607313 72.4670439,282.253873 72.4670439,268.493822 C72.4670439,254.733771 92.5374369,237.292687 123.563285,224.146141 C131.100638,220.903326 139.33914,218.011086 147.840572,215.294134 C152.83626,232.472287 159.409533,250.351589 167.560391,268.669109 C159.497176,286.898986 153.011547,304.690644 148.103503,321.781154 C139.426783,319.064201 131.188281,316.084317 123.563285,312.841503 Z M170.715562,438.084261 C158.796027,431.248057 153.625053,405.217897 157.65666,371.738027 C158.62074,363.499525 160.198325,354.822805 162.126485,345.970798 C179.304638,350.177692 198.060377,353.420507 217.780195,355.523954 C229.612087,371.738027 241.882196,386.462158 254.239949,399.345773 C225.668123,425.901795 198.84917,440.450639 180.619293,440.450639 C176.675329,440.362996 173.344871,439.574203 170.715562,438.084261 Z M378.606271,371.299809 C382.725522,404.779679 377.642191,430.809839 365.8103,437.733687 C363.180991,439.311272 359.762889,440.012421 355.731282,440.012421 C337.589048,440.012421 310.682452,425.551221 282.110626,399.170486 C294.380735,386.286871 306.650844,371.650384 318.307448,355.436311 C338.11491,353.332863 356.870649,350.090049 374.048802,345.79551 C376.064606,354.647518 377.642191,363.148951 378.606271,371.299809 Z M412.349072,312.841503 C404.811719,316.084317 396.573217,318.976557 388.071784,321.69351 C383.076097,304.515357 376.502824,286.636055 368.351965,268.318535 C376.41518,250.088658 382.900809,232.296999 387.808853,215.20649 C396.485573,217.923443 404.724075,220.903326 412.436715,224.146141 C443.462563,237.38033 463.532956,254.733771 463.532956,268.493822 C463.445313,282.253873 443.374919,299.694957 412.349072,312.841503 Z" id="Shape" fill="#FFFFFF" fill-rule="nonzero"></path>
            <circle id="Oval" fill="#FFFFFF" cx="267.737069" cy="268.669109" r="40.0531425"></circle>
        </g>
    </g>
</svg>